<?xml version="1.0" encoding="UTF-8"?>
<!DOCTYPE svg PUBLIC "-//W3C//DTD SVG 1.0//EN" "http://www.w3.org/TR/2001/REC-SVG-20010904/DTD/svg10.dtd">
<!-- Creator: CorelDRAW X8 -->
<svg xmlns="http://www.w3.org/2000/svg" xml:space="preserve" width="1.50323in" height="0.73735in" version="1.0" style="shape-rendering:geometricPrecision; text-rendering:geometricPrecision; image-rendering:optimizeQuality; fill-rule:evenodd; clip-rule:evenodd"
viewBox="0 0 599 294"
 xmlns:xlink="http://www.w3.org/1999/xlink">
 <defs>
  <style type="text/css">
   <![CDATA[
    .fil1 {fill:#FFC857}
    .fil0 {fill:#FFC857;fill-rule:nonzero}
   ]]>
  </style>
 </defs>
 <g id="Layer_x0020_1">
  <metadata id="CorelCorpID_0Corel-Layer"/>
  <g id="_3016538295728">
   <path class="fil0" d="M227 91l-4 19 -45 0 -4 18 41 0 -4 19 -41 0 -10 41 -24 0 22 -97 69 0zm65 97l-70 0 22 -97 25 0 -18 78 45 0 -4 19zm107 -97l-4 19 -45 0 -4 17 41 0 -4 18 -42 0 -5 25 45 0 -4 18 -70 0 22 -97 70 0zm34 47l-23 -47 27 0 14 31 28 -31 28 0 -46 49 24 48 -27 0 -15 -32 -29 32 -27 0 46 -50z"/>
   <path class="fil0" d="M163 294c-15,0 -26,-3 -35,-8 -8,-6 -12,-13 -12,-23 0,-16 6,-29 19,-38 13,-10 30,-15 49,-15 8,0 15,1 21,2 7,0 13,2 20,5l-6 19 -3 0c-5,-4 -10,-7 -15,-9 -5,-1 -11,-2 -17,-2 -6,0 -12,1 -17,3 -5,2 -9,4 -12,8 -4,3 -6,7 -8,11 -2,4 -3,9 -3,13 0,7 2,11 7,14 5,3 12,5 22,5 1,0 2,0 4,0 1,0 2,0 3,0l5 -16 -21 0 4 -15 49 0 -12 40c-7,1 -13,3 -20,4 -7,1 -14,2 -22,2zm181 -82l-53 49 -9 31 -27 0 8 -30 -23 -50 28 0 14 31 31 -31 31 0zm100 80l-27 0 15 -53 -28 34 -19 0 -9 -36 -17 55 -25 0 24 -80 31 0 11 40 36 -40 32 0 -24 80z"/>
   <path class="fil1" d="M151 277c-2,0 -4,16 -6,15 -78,-24 -145,-86 -145,-138 0,-85 132,-154 295,-154 163,0 280,41 301,147 21,106 -79,185 -148,20 -2,-5 20,-14 23,-7 61,136 119,85 104,-11 -12,-83 -131,-136 -280,-136 -149,0 -269,63 -269,141 0,46 52,108 125,123z"/>
  </g>
 </g>
</svg>
